# xmcd
#
# Track frame offsets:
#	150
#	6535
#	16905
#	33375
#	45632
#	55190
#	66102
#	68852
#	85685
#	96840
#	109150
#	131390
#	147285
#	156682
#	181187
#	195152
#	213770
#	227417
#	239005
#	262602
#	277420
#	294587
#
# Disc length: 4115 seconds
# Revision: 0
# Processed by: cddbd v1.5.2PL0 Copyright (c) Steve Scherf et al.
# Submitted via: dBpowerAMP V12.0
#
DISCID=37101116
DTITLE=Stephenson, Larry with Mark Newton - Live At Mr B's
DYEAR=1998
DGENRE=
TTITLE0=Intro
TTITLE1=Up This Hill And Doen
TTITLE2=Hold To God's Unchanging Hand
TTITLE3=Rose Of Old Kentucky
TTITLE4=Love Please Come To Me
TTITLE5=Flint Hill Special
TTITLE6=Intro for David Parmley
TTITLE7=Live and Let Live
TTITLE8=Dim Lights and Thick Smoke
TTITLE9=You'll Be Loving Another Man
TTITLE10=It Takes One To Know One
TTITLE11=Turkey In THe Straw
TTITLE12=I know What It Means To Be Lonesome
TTITLE13=How Great Thou Art
TTITLE14=Molly and Tenbrooks
TTITLE15=Lonesome River
TTITLE16=My Walking Shoes Don't Fit  Me Anymore
TTITLE17=Dark Hollow
TTITLE18=Don't Expect Me To Walk Back In
TTITLE19=The Girl I Left in Sunny Tennessee
TTITLE20=Mr. Engineer
TTITLE21=Rolling In My Sweet Baby's Arms
EXTD=
EXTT0=
EXTT1=
EXTT2=
EXTT3=
EXTT4=
EXTT5=
EXTT6=
EXTT7=
EXTT8=
EXTT9=
EXTT10=
EXTT11=
EXTT12=
EXTT13=
EXTT14=
EXTT15=
EXTT16=
EXTT17=
EXTT18=
EXTT19=
EXTT20=
EXTT21=
PLAYORDER=
